<svg width="908" height="950" viewBox="0 0 908 950" fill="none" xmlns="http://www.w3.org/2000/svg">
<path d="M546.5 0L549.625 1.875L555.875 6.25V7.5H557.75V8.75L560.25 9.375L570.25 16.25V17.5L572.75 18.125L580.875 23.75V25H582.75V26.25L585.25 26.875L593.375 32.5V33.75L595.875 34.375L597.75 35.625V36.875H599.625V38.125L602.125 38.75L604 40V41.25H605.875V42.5L608.375 43.125L610.25 44.375V45.625L612.75 46.25L624.625 54.375V55.625L627.125 56.25L635.25 61.875V63.125H637.125V64.375L639.625 65L643.375 67.5V68.75L645.875 69.375V70.625L649 71.25L656.5 76.875L664.625 82.5V83.75L667.125 84.375V85.625L670.25 86.25L670.875 88.125H672.75V89.375H674.625V90.625L677.125 91.25L679 92.5V93.75H680.875V95L683.375 95.625L685.25 96.875V98.125L687.75 98.75L691.5 101.25V102.5L694 103.125L697.75 105.625V106.875L700.25 107.5V108.75L702.75 109.375L704.625 110.625L705.25 113.75L704.625 198.75L708.375 200L720.25 206.25L735.25 214.375L746.5 220.625V308.75L734 310L732.75 310.625L777.75 325.625L787.75 329.375V414.375L787.125 416.25L783.375 416.875L743.375 417.5L714 418.75L675.25 419.375L658.375 420L656.5 420.625L675.875 422.5L715.875 425.625L800.875 433.125L827.75 435.625V521.875L822.75 523.125L764.625 531.25L739.625 534.375L736.5 535L739 536.25L788.375 537.5L805.25 538.125L812.125 538.75L838.375 539.375L845.25 540L867.125 540.625L867.75 541.25V626.25L862.75 629.375L852.75 633.75L847.125 636.25L842.75 638.75L894 643.125L907.125 644.375L907.75 729.375L904.625 732.5L878.375 755L870.25 761.875L863.375 767.5L857.125 773.125L850.25 778.75L840.875 786.875L834 792.5L825.25 800L815.875 808.125L809 813.75L800.25 821.25L790.875 829.375L784 835L774.625 843.125L767.75 848.75L758.375 856.875L749.625 864.375L741.5 871.25L732.75 878.75L725.875 884.375L716.5 892.5L708.375 899.375L701.5 905L694.625 911.25L687.75 916.875L679 924.375L672.125 930L662.75 938.125L649.625 949.375L644.625 948.75L595.875 935L561.5 925.625L486.5 905L390.875 878.75L357.125 869.375L309 856.25L145.875 811.25L107.75 800.625L64 788.75L29.625 779.375L2.75 771.875L0.875 771.25L0.25 740V674.375L0.875 672.5L6.5 671.25L77.125 659.375L95.875 656.25L82.125 653.75L54 649.375L52.75 648.75V551.25L65.25 550L77.75 549.375L82.125 548.75L95.25 548.125L99 547.5L129.625 545.625L142.125 544.375L173.375 542.5L177.75 541.875L218.375 539.375L255.25 536.875L260.25 536.25L282.75 536.875L582.75 551.875L600.25 553.125V416.875L419 422.5H372.75L322.75 420L222.125 414.375L193.375 412.5L161.5 411.25L155.875 410.625L154.625 410V314.375L170.25 311.875L215.25 306.25L246.5 302.5L248.375 301.875L232.125 298.75L205.25 294.375L204.625 293.75L204 270V198.125L221.5 194.375L246.5 188.75L267.75 184.375V183.125L258.375 180.625L253.375 179.375V83.75L258.375 81.875L330.875 61.25L364 51.875L396.5 42.5L464.625 23.125L541.5 1.25L546.5 0Z" fill="#2A3991"/>
<path d="M546.5 0L549.625 1.875L555.875 6.25V7.5H557.75V8.75L560.25 9.375L570.25 16.25V17.5L572.75 18.125L580.875 23.75V25H582.75V26.25L585.25 26.875L593.375 32.5V33.75L595.875 34.375L597.75 35.625V36.875H599.625V38.125L602.125 38.75L604 40V41.25H605.875V42.5L608.375 43.125L610.25 44.375V45.625L612.75 46.25L624.625 54.375V55.625L627.125 56.25L635.25 61.875V63.125H637.125V64.375L639.625 65L643.375 67.5V68.75L645.875 69.375V70.625L649 71.25L656.5 76.875L664.625 82.5V83.75L667.125 84.375V85.625L670.25 86.25L670.875 88.125H672.75V89.375H674.625V90.625L677.125 91.25L679 92.5V93.75H680.875V95L683.375 95.625L685.25 96.875V98.125L687.75 98.75L691.5 101.25V102.5L694 103.125L697.75 105.625V106.875L700.25 107.5V108.75L702.75 109.375L704.625 110.625L705.25 113.75L704.625 198.75L708.375 200L720.25 206.25L735.25 214.375L746.5 220.625V308.75L734 310L730.25 310.625L692.75 298.125L682.125 295L637.125 280L613.375 272.5L591.5 265L582.75 262.5H574.625L524 268.75L500.25 271.875L472.75 275L437.75 279.375L419 281.875L256.5 301.875H248.375L232.125 298.75L205.25 294.375L204.625 293.75L204 270V198.125L221.5 194.375L246.5 188.75L267.75 184.375V183.125L258.375 180.625L253.375 179.375V83.75L258.375 81.875L330.875 61.25L364 51.875L396.5 42.5L464.625 23.125L541.5 1.25L546.5 0Z" fill="#F69225"/>
<path d="M6.5 671.25H10.25V671.875L5.875 672.5V673.75L10.875 674.375L30.25 678.125L90.25 689.375L135.25 697.5L289.625 726.25L579 780L639 791.25L648.375 793.125L649 807.5V933.75L648.375 948.75L649.625 949.375L644.625 948.75L595.875 935L561.5 925.625L486.5 905L390.875 878.75L357.125 869.375L309 856.25L145.875 811.25L107.75 800.625L64 788.75L29.625 779.375L2.75 771.875L0.875 771.25L0.25 740V674.375L0.875 672.5L6.5 671.25Z" fill="#AC7AD9"/>
<path d="M65.25 550H69.625V550.625L66.5 551.25L69 551.875V553.125H80.25L315.25 570L506.5 583.75L617.75 591.875L622.75 592.5V738.125L597.75 734.375L525.875 723.125L262.125 681.875L142.75 663.125L115.25 658.75L102.125 656.875H95.875L93.375 655.625L57.125 650L52.75 648.75V551.25L65.25 550Z" fill="#7584DD"/>
<path d="M839.625 639.375L856.5 640.625L864 641.25L879.625 641.875L907.125 644.375L907.75 729.375L904.625 732.5L878.375 755L870.25 761.875L863.375 767.5L857.125 773.125L850.25 778.75L840.875 786.875L834 792.5L825.25 800L815.875 808.125L809 813.75L800.25 821.25L790.875 829.375L784 835L774.625 843.125L767.75 848.75L758.375 856.875L749.625 864.375L741.5 871.25L732.75 878.75L725.875 884.375L716.5 892.5L708.375 899.375L701.5 905L694.625 911.25L687.75 916.875L679 924.375L672.125 930L662.75 938.125L654 945.625L650.25 948.75H648.375V793.125L642.125 792.5L457.75 758.125L312.75 731.25L249 719.375L210.875 712.5L185.25 707.5L154.625 701.875L131.5 697.5L73.375 686.875L27.125 678.125L10.875 675L5.875 673.75V672.5L10.875 670.625L80.875 658.75L97.75 656.25L106.5 656.875L147.125 663.125L222.75 675L342.75 693.75L498.375 718.125L621.5 737.5L623.375 738.125V736.875L632.75 733.125L655.25 723.125L669.625 716.25L732.75 687.5L750.875 679.375L772.75 669.375L793.375 660L817.125 649.375L839.625 639.375Z" fill="#3F096B"/>
<path d="M580.25 416.875H600.25V553.125H593.375L294.625 538.125L266.5 536.875H260.25L250.25 537.5V536.875L238.375 535.625L147.75 531.25L104.625 528.75L104 528.125V498.125L104.625 432.5L105.875 431.875L130.25 430.625L303.375 425L357.75 423.75L368.375 423.125L365.25 422.5V421.875H419L540.25 418.125L580.25 416.875Z" fill="#64BEFD"/>
<path d="M574.625 261.875H580.25V390L557.125 391.25L479.625 395L237.75 406.25L202.125 408.125L165.25 410L167.75 411.25H161.5L155.875 410.625L154.625 410V314.375L170.25 311.875L215.25 306.25L256.5 301.25L282.75 298.125L301.5 295.625L333.375 291.875L356.5 288.75L384 285.625L422.75 280.625L437.75 278.75L564 263.125L574.625 261.875Z" fill="#51DF94"/>
<path d="M557.125 124.375H562.125V245L372.75 270.625L243.375 288.125L208.375 293.125L204.625 293.75L204 270V198.125L221.5 194.375L246.5 188.75L267.75 184.375L268.375 183.125H274L442.75 148.125L480.875 140L547.75 126.25L557.125 124.375Z" fill="#FEDE6C"/>
<path d="M580.25 261.875L584.625 262.5L594.625 265.625L650.25 283.75L689.625 296.875L697.75 299.375L757.125 318.75L780.875 326.875L787.75 329.375V414.375L787.125 416.25L783.375 416.875L743.375 417.5L714 418.75L634.625 419.375L604 416.875H578.375L559 417.5L557.125 418.125L419 422.5H372.75L322.75 420L222.125 414.375L193.375 412.5L167.75 411.25L162.125 410.625V410L165.25 409.375L263.375 404.375L318.375 401.875L355.25 400L436.5 396.25L572.125 390H580.25V261.875Z" fill="#009149"/>
<path d="M900.875 644.375H907.125L907.75 729.375L904.625 732.5L878.375 755L870.25 761.875L863.375 767.5L857.125 773.125L850.25 778.75L840.875 786.875L834 792.5L825.25 800L815.875 808.125L809 813.75L800.25 821.25L790.875 829.375L784 835L774.625 843.125L767.75 848.75L758.375 856.875L749.625 864.375L741.5 871.25L732.75 878.75L725.875 884.375L716.5 892.5L708.375 899.375L701.5 905L694.625 911.25L687.75 916.875L679 924.375L672.125 930L662.75 938.125L654 945.625L650.25 948.75H648.375V793.125L657.125 788.125L672.125 779.375L688.375 770L701.5 762.5L715.875 754.375L729.625 746.25L744.625 737.5L755.875 731.25L770.25 723.125L785.875 714.375L815.875 696.875L831.5 688.125L845.25 680L860.25 671.25L892.75 653.125L902.125 647.5L905.875 645.625L900.875 645V644.375Z" fill="#632F8F"/>
<path d="M546.5 0L548.375 1.25H547.125V115L538.375 117.5L319.625 164.375L272.75 174.375L254.625 178.125L255.25 179.375H253.375V83.75L258.375 81.875L330.875 61.25L364 51.875L396.5 42.5L464.625 23.125L541.5 1.25L546.5 0Z" fill="#FE6C78"/>
<path d="M578.375 416.25H604L634.625 418.75H675.25V419.375L658.375 420L656.5 420.625L675.875 422.5L715.875 425.625L800.875 433.125L827.75 435.625V521.875L822.75 523.125L764.625 531.25L739.625 534.375L736.5 535L737.75 536.25H724.625L625.875 550L600.875 553.125H600.25V416.875L580.25 417.5H559V416.875L578.375 416.25Z" fill="#1877BC"/>
<path d="M724.625 535.625L758.375 536.875L788.375 537.5L805.25 538.125L812.125 538.75L838.375 539.375L858.375 540.625L864 541.25V541.875L857.75 542.5L855.875 543.75L824.625 550L766.5 562.5L734 569.375L719 572.5L679.625 580.625L653.375 586.25L625.875 591.875L623.375 592.5L592.75 590.625L392.125 576.25L183.375 561.25L80.25 553.75L69 553.125V551.875H64L66.5 550.625L82.125 548.75L95.25 548.125L99 547.5L129.625 545.625L142.125 544.375L173.375 542.5L177.75 541.875L218.375 539.375L255.25 536.875L260.25 536.25L282.75 536.875L582.75 551.875L593.375 552.5H600.875L630.25 548.75L702.125 538.75L724.625 535.625Z" fill="#05166D"/>
<path d="M547.125 1.25L549.625 1.875L555.875 6.25V7.5H557.75V8.75L560.25 9.375L570.25 16.25V17.5L572.75 18.125L580.875 23.75V25H582.75V26.25L585.25 26.875L593.375 32.5V33.75L595.875 34.375L597.75 35.625V36.875H599.625V38.125L602.125 38.75L604 40V41.25H605.875V42.5L608.375 43.125L610.25 44.375V45.625L612.75 46.25L624.625 54.375V55.625L627.125 56.25L635.25 61.875V63.125H637.125V64.375L639.625 65L643.375 67.5V68.75L645.875 69.375V70.625L649 71.25L656.5 76.875L664.625 82.5V83.75L667.125 84.375V85.625L670.25 86.25L670.875 88.125H672.75V89.375H674.625V90.625L677.125 91.25L679 92.5V93.75H680.875V95L683.375 95.625L685.25 96.875V98.125L687.75 98.75L691.5 101.25V102.5L694 103.125L697.75 105.625V106.875L700.25 107.5V108.75L702.75 109.375L704 110L704.625 115.625L704 197.5L700.25 196.875L685.875 189.375L648.375 169.375L636.5 163.125L616.5 152.5L602.125 145L588.375 137.5L571.5 128.75L562.75 124.375L557.125 125L532.125 130L484.625 140L274 183.75H269.625L256.5 180L254 178.125L258.375 176.875L316.5 164.375L349 157.5L386.5 149.375L433.375 139.375L470.25 131.25L540.875 116.25L547.125 115L546.5 92.5V34.375L547.125 1.25Z" fill="#BB202F"/>
<path d="M572.75 390.625H582.75L605.875 393.125L635.25 396.875L663.375 400.625L687.75 403.75L727.125 409.375L741.5 411.25L754 413.125L761.5 415L767.125 415.625V416.25L737.125 416.875L705.875 418.125L696.5 418.75L634.625 419.375L604 416.875H578.375L559 417.5L557.125 418.125L419 422.5H372.75L322.75 420L222.125 414.375L193.375 412.5L167.75 411.25L162.125 410.625V410L165.25 409.375L263.375 404.375L318.375 401.875L355.25 400L436.5 396.25L545.875 391.25L572.75 390.625Z" fill="#016D23"/>
<path d="M355.25 400H369V400.625L307.125 403.75L279.625 405L221.5 408.125L184 410L178.375 410.625L177.125 411.25H167.75L162.125 410.625V410L165.25 409.375L263.375 404.375L318.375 401.875L355.25 400Z" fill="#009149"/>
<path d="M841.5 638.125L842.75 638.75L872.75 641.25V641.875H864L840.875 640L841.5 638.125Z" fill="#8252B2"/>
<path d="M65.25 550H69.625V550.625L66.5 551.25L69 552.5H54.625L57.125 550.625L65.25 550Z" fill="#4657AD"/>
<path d="M646.5 419.375H658.375L656.5 420.625L660.875 421.25V421.875H655.25L647.125 420.625L646.5 419.375Z" fill="#6DAFDE"/>
<path d="M735.875 533.75H739.625V534.375L736.5 535L737.75 536.25H729V535L735.875 533.75Z" fill="#8689E1"/>
<path d="M841.5 638.125L842.75 638.75L851.5 639.375L854.625 640V640.625L840.875 640L841.5 638.125Z" fill="#7645A5"/>
</svg>
