<svg width="141" height="115" viewBox="0 0 141 115" fill="none" xmlns="http://www.w3.org/2000/svg">
<path fill-rule="evenodd" clip-rule="evenodd" d="M69.3562 0.687767C70.8557 1.30512 72.1371 2.35012 73.0385 3.69063C73.9398 5.03113 74.4207 6.60696 74.4203 8.21885V106.025C74.42 107.637 73.9384 109.212 73.0365 110.552C72.1347 111.892 70.8529 112.937 69.3534 113.554C67.8539 114.17 66.2039 114.332 64.612 114.017C63.0201 113.703 61.5578 112.927 60.4099 111.788L29.9843 81.5736H8.75938C6.58258 81.5736 4.49494 80.7149 2.95571 79.1863C1.41649 77.6578 0.551758 75.5847 0.551758 73.4231V40.821C0.551758 38.6593 1.41649 36.5862 2.95571 35.0577C4.49494 33.5291 6.58258 32.6704 8.75938 32.6704H29.9843L60.4099 2.45643C61.5577 1.31591 63.0204 0.539087 64.6129 0.224257C66.2053 -0.0905734 67.8561 0.0707334 69.3562 0.687767ZM93.2404 35.0585C94.7796 33.5305 96.8668 32.6722 99.0432 32.6722C101.22 32.6722 103.307 33.5305 104.846 35.0585L115.458 45.5972L126.071 35.0585C126.828 34.2801 127.734 33.6591 128.735 33.232C129.736 32.8048 130.813 32.58 131.903 32.5706C132.993 32.5612 134.074 32.7674 135.082 33.1772C136.091 33.587 137.008 34.1922 137.778 34.9575C138.549 35.7228 139.158 36.6328 139.571 37.6345C139.984 38.6361 140.191 39.7094 140.182 40.7916C140.172 41.8738 139.946 42.9434 139.516 43.9377C139.086 44.9321 138.46 45.8315 137.676 46.5834L127.064 57.122L137.676 67.6606C139.172 69.1978 139.999 71.2567 139.98 73.3937C139.961 75.5308 139.098 77.575 137.576 79.0862C136.055 80.5974 133.996 81.4545 131.844 81.4731C129.692 81.4917 127.619 80.6702 126.071 79.1855L115.458 68.6468L104.846 79.1855C103.298 80.6702 101.225 81.4917 99.0727 81.4731C96.9207 81.4545 94.8621 80.5974 93.3404 79.0862C91.8186 77.575 90.9554 75.5308 90.9367 73.3937C90.918 71.2567 91.7453 69.1978 93.2404 67.6606L103.853 57.122L93.2404 46.5834C91.7017 45.0549 90.8373 42.9822 90.8373 40.821C90.8373 38.6597 91.7017 36.587 93.2404 35.0585Z" fill="url(#paint0_linear_135_152)"/>
<defs>
<linearGradient id="paint0_linear_135_152" x1="70.367" y1="0.0673828" x2="70.367" y2="114.174" gradientUnits="userSpaceOnUse">
<stop stop-color="#B97D08"/>
<stop offset="1" stop-color="#BA8600"/>
</linearGradient>
</defs>
</svg>
