<svg width="149" height="122" viewBox="0 0 149 122" fill="none" xmlns="http://www.w3.org/2000/svg">
<path fill-rule="evenodd" clip-rule="evenodd" d="M69.7119 4.02034C71.2103 4.64161 72.4909 5.69324 73.3917 7.04227C74.2925 8.39129 74.7731 9.97712 74.7727 11.5992V110.027C74.7723 111.649 74.2911 113.234 73.3898 114.583C72.4885 115.931 71.2076 116.982 69.709 117.603C68.2105 118.224 66.5616 118.386 64.9707 118.07C63.3798 117.753 61.9185 116.972 60.7714 115.826L30.3655 85.4198H9.15443C6.97905 85.4198 4.89277 84.5556 3.35454 83.0174C1.81631 81.4792 0.952148 79.3929 0.952148 77.2175V44.4084C0.952148 42.233 1.81631 40.1467 3.35454 38.6085C4.89277 37.0703 6.97905 36.2061 9.15443 36.2061H30.3655L60.7714 5.80023C61.9184 4.65247 63.3801 3.87071 64.9716 3.55388C66.563 3.23705 68.2127 3.39939 69.7119 4.02034V4.02034ZM112.971 2.8146C114.509 1.27691 116.595 0.413086 118.77 0.413086C120.945 0.413086 123.031 1.27691 124.569 2.8146C132.195 10.4235 138.244 19.464 142.367 29.4171C146.49 39.3702 148.606 50.0397 148.593 60.8129C148.606 71.5861 146.49 82.2556 142.367 92.2087C138.244 102.162 132.195 111.202 124.569 118.811C123.022 120.305 120.95 121.132 118.799 121.113C116.649 121.095 114.591 120.232 113.071 118.711C111.55 117.191 110.687 115.133 110.669 112.983C110.65 110.832 111.477 108.76 112.971 107.213C119.074 101.128 123.915 93.8952 127.213 85.932C130.511 77.9688 132.202 69.4321 132.189 60.8129C132.189 42.6859 124.856 26.2977 112.971 14.4126C111.433 12.8745 110.569 10.7886 110.569 8.61362C110.569 6.43866 111.433 4.35276 112.971 2.8146V2.8146ZM89.7665 26.0107C90.5282 25.248 91.4328 24.643 92.4286 24.2303C93.4243 23.8175 94.4917 23.605 95.5696 23.605C96.6475 23.605 97.7148 23.8175 98.7106 24.2303C99.7063 24.643 100.611 25.248 101.373 26.0107C105.949 30.5766 109.577 36.0016 112.051 41.974C114.524 47.9465 115.792 54.3487 115.784 60.8129C115.792 67.2771 114.523 73.6792 112.05 79.6516C109.577 85.624 105.948 91.049 101.373 95.6152C99.8336 97.1543 97.7462 98.019 95.5696 98.019C93.393 98.019 91.3055 97.1543 89.7665 95.6152C88.2274 94.0761 87.3627 91.9887 87.3627 89.8121C87.3627 87.6355 88.2274 85.5481 89.7665 84.009C92.8191 80.9674 95.24 77.3521 96.8898 73.3711C98.5396 69.3902 99.3858 65.1222 99.3795 60.8129C99.3862 56.5036 98.5403 52.2355 96.8905 48.2545C95.2406 44.2735 92.8195 40.6582 89.7665 37.6169C89.0038 36.8551 88.3988 35.9505 87.9861 34.9548C87.5733 33.959 87.3608 32.8917 87.3608 31.8138C87.3608 30.7359 87.5733 29.6685 87.9861 28.6728C88.3988 27.677 89.0038 26.7724 89.7665 26.0107V26.0107Z" fill="url(#paint0_linear_132_127)"/>
<defs>
<linearGradient id="paint0_linear_132_127" x1="74.7727" y1="0.413086" x2="74.7727" y2="121.114" gradientUnits="userSpaceOnUse">
<stop stop-color="#B97D08"/>
<stop offset="1" stop-color="#BA8600"/>
</linearGradient>
</defs>
</svg>
