<svg width="96" height="96" viewBox="0 0 96 96" fill="none" xmlns="http://www.w3.org/2000/svg">
<path d="M58.7066 21.6499C58.8763 20.6954 59.7062 20 60.6757 20H77.3241C78.2936 20 79.1236 20.6954 79.2932 21.6499L86.9999 65L88.622 83.6535C88.8252 85.9905 86.9829 88 84.637 88H53.3628C51.017 88 49.1747 85.9905 49.3779 83.6535L50.9999 65L58.7066 21.6499Z" fill="#DF8D12"/>
<path fill-rule="evenodd" clip-rule="evenodd" d="M49.0152 64.7378L56.7375 21.2999C57.0769 19.3908 58.7367 18 60.6758 18H77.3242C79.2632 18 80.923 19.3907 81.2624 21.2999L88.9847 64.7378L90.6145 83.4802C90.9193 86.9858 88.1559 90 84.637 90H53.3629C49.8441 90 47.0806 86.9858 47.3854 83.4802L49.0152 64.7378ZM60.6758 20C59.7062 20 58.8763 20.6954 58.7066 21.6499L51 65L49.3779 83.6535C49.1747 85.9905 51.017 88 53.3629 88H84.637C86.9829 88 88.8252 85.9905 88.622 83.6535L87 65L79.2933 21.6499C79.1236 20.6954 78.2937 20 77.3242 20H60.6758Z" fill="#5B3303"/>
<path d="M53.3801 88H84.6198C86.9719 88 88.8163 85.9803 88.6034 83.6379L87.3307 69.6379C87.1434 67.5775 85.4159 66 83.3471 66H54.6528C52.584 66 50.8565 67.5775 50.6692 69.6379L49.3965 83.6379C49.1836 85.9803 51.028 88 53.3801 88Z" fill="#FFB423"/>
<path d="M50.6864 69.6584L49.5 83.5L80 66H54.6718C52.5951 66 50.8638 67.5893 50.6864 69.6584Z" fill="#FFC149"/>
<path d="M62 22L55 62L76 22H62Z" fill="#E9981F"/>
<path fill-rule="evenodd" clip-rule="evenodd" d="M61.1643 21.0136C61.7091 21.1044 62.0771 21.6196 61.9863 22.1644L54.9863 64.1644C54.8955 64.7092 54.3803 65.0772 53.8355 64.9864C53.2907 64.8956 52.9227 64.3804 53.0135 63.8356L60.0135 21.8356C60.1043 21.2908 60.6195 20.9228 61.1643 21.0136Z" fill="#FFC351"/>
<path fill-rule="evenodd" clip-rule="evenodd" d="M55.6643 54.0136C56.2091 54.1044 56.5771 54.6196 56.4863 55.1644L54.9863 64.1644C54.8955 64.7092 54.3803 65.0772 53.8355 64.9864C53.2907 64.8956 52.9227 64.3804 53.0135 63.8356L54.5135 54.8356C54.6043 54.2908 55.1195 53.9228 55.6643 54.0136Z" fill="#FFD991"/>
<path fill-rule="evenodd" clip-rule="evenodd" d="M54.8402 69C54.3201 69 53.8869 69.3987 53.8437 69.917L53.4965 74.083C53.4506 74.6334 52.9673 75.0424 52.4169 74.9965C51.8665 74.9507 51.4575 74.4673 51.5034 73.917L51.8506 69.7509C51.9801 68.196 53.2799 67 54.8402 67H58.9999C59.5522 67 59.9999 67.4477 59.9999 68C59.9999 68.5523 59.5522 69 58.9999 69H54.8402Z" fill="#FFFAED"/>
<path d="M79 50.5C79 51.3284 77.8807 52 76.5 52C75.1193 52 74 51.3284 74 50.5C74 49.6716 75.1193 49 76.5 49C77.8807 49 79 49.6716 79 50.5Z" fill="#C17707"/>
<path d="M80 44C80 44.5523 79.1046 45 78 45C76.8954 45 76 44.5523 76 44C76 43.4477 76.8954 43 78 43C79.1046 43 80 43.4477 80 44Z" fill="#C17707"/>
<path d="M77 39C77 39.5523 76.1046 40 75 40C73.8954 40 73 39.5523 73 39C73 38.4477 73.8954 38 75 38C76.1046 38 77 38.4477 77 39Z" fill="#C17707"/>
<path d="M78 32.5C78 32.7761 77.5523 33 77 33C76.4477 33 76 32.7761 76 32.5C76 32.2239 76.4477 32 77 32C77.5523 32 78 32.2239 78 32.5Z" fill="#C17707"/>
<path d="M80 36.5C80 36.7761 79.5523 37 79 37C78.4477 37 78 36.7761 78 36.5C78 36.2239 78.4477 36 79 36C79.5523 36 80 36.2239 80 36.5Z" fill="#C17707"/>
<path d="M75 42.5C75 42.7761 74.5523 43 74 43C73.4477 43 73 42.7761 73 42.5C73 42.2239 73.4477 42 74 42C74.5523 42 75 42.2239 75 42.5Z" fill="#C17707"/>
<path d="M81 47.5C81 47.7761 80.5523 48 80 48C79.4477 48 79 47.7761 79 47.5C79 47.2239 79.4477 47 80 47C80.5523 47 81 47.2239 81 47.5Z" fill="#C17707"/>
<path d="M76 46.5C76 46.7761 75.5523 47 75 47C74.4477 47 74 46.7761 74 46.5C74 46.2239 74.4477 46 75 46C75.5523 46 76 46.2239 76 46.5Z" fill="#C17707"/>
<path d="M83 55C83 55.5523 82.1046 56 81 56C79.8954 56 79 55.5523 79 55C79 54.4477 79.8954 54 81 54C82.1046 54 83 54.4477 83 55Z" fill="#C17707"/>
<path d="M84 85.5C84 86.3284 83.3284 87 82.5 87C81.6716 87 81 86.3284 81 85.5C81 84.6716 81.6716 84 82.5 84C83.3284 84 84 84.6716 84 85.5Z" fill="#FFC24B"/>
<path d="M87 83C87 83.5523 86.5523 84 86 84C85.4477 84 85 83.5523 85 83C85 82.4477 85.4477 82 86 82C86.5523 82 87 82.4477 87 83Z" fill="#FFC24B"/>
<path d="M78 86C78 86.5523 78.4477 87 79 87C79.5523 87 80 86.5523 80 86C80 85.4477 79.5523 85 79 85C78.4477 85 78 85.4477 78 86Z" fill="#FFC24B"/>
<path d="M82 81C82 81.5523 82.4477 82 83 82C83.5523 82 84 81.5523 84 81C84 80.4477 83.5523 80 83 80C82.4477 80 82 80.4477 82 81Z" fill="#FFC24B"/>
<path d="M78 82.5C78 83.3284 78.6716 84 79.5 84C80.3284 84 81 83.3284 81 82.5C81 81.6716 80.3284 81 79.5 81C78.6716 81 78 81.6716 78 82.5Z" fill="#FFC24B"/>
<path d="M73 85C73 85.5523 73.4477 86 74 86C74.5523 86 75 85.5523 75 85C75 84.4477 74.5523 84 74 84C73.4477 84 73 84.4477 73 85Z" fill="#FFC24B"/>
<path d="M85 78C85 78.5523 85.4477 79 86 79C86.5523 79 87 78.5523 87 78C87 77.4477 86.5523 77 86 77C85.4477 77 85 77.4477 85 78Z" fill="#FFC24B"/>
<path d="M16.7066 21.6499C16.8763 20.6954 17.7062 20 18.6757 20H35.3241C36.2936 20 37.1236 20.6954 37.2932 21.6499L44.9999 65L46.622 83.6535C46.8252 85.9905 44.9829 88 42.637 88H11.3628C9.01696 88 7.17466 85.9905 7.37789 83.6535L8.99993 65L16.7066 21.6499Z" fill="#FCB326"/>
<path fill-rule="evenodd" clip-rule="evenodd" d="M7.01521 64.7378L14.7375 21.2999C15.0769 19.3908 16.7367 18 18.6758 18H35.3242C37.2632 18 38.923 19.3907 39.2624 21.2999L46.9847 64.7378L48.6145 83.4802C48.9193 86.9858 46.1559 90 42.637 90H11.3629C7.84405 90 5.0806 86.9858 5.38543 83.4802L7.01521 64.7378ZM18.6758 20C17.7062 20 16.8763 20.6954 16.7066 21.6499L8.99996 65L7.37791 83.6535C7.17469 85.9905 9.01699 88 11.3629 88H42.637C44.9829 88 46.8252 85.9905 46.622 83.6535L45 65L37.2933 21.6499C37.1236 20.6954 36.2937 20 35.3242 20H18.6758Z" fill="#5B3303"/>
<path d="M11.3801 88H42.6198C44.9719 88 46.8163 85.9803 46.6034 83.6379L45.3307 69.6379C45.1434 67.5775 43.4159 66 41.3471 66H12.6528C10.584 66 8.85654 67.5775 8.66924 69.6379L7.39651 83.6379C7.18356 85.9803 9.02796 88 11.3801 88Z" fill="#FFB423"/>
<path d="M20 22L13 62L34 22H20Z" fill="#FFC555"/>
<path fill-rule="evenodd" clip-rule="evenodd" d="M19.1643 21.0136C19.7091 21.1044 20.0771 21.6196 19.9863 22.1644L12.9863 64.1644C12.8955 64.7092 12.3803 65.0772 11.8355 64.9864C11.2907 64.8956 10.9227 64.3804 11.0135 63.8356L18.0135 21.8356C18.1043 21.2908 18.6195 20.9228 19.1643 21.0136Z" fill="#FFD179"/>
<path fill-rule="evenodd" clip-rule="evenodd" d="M13.6643 54.0136C14.2091 54.1044 14.5771 54.6196 14.4863 55.1644L12.9863 64.1644C12.8955 64.7092 12.3803 65.0772 11.8355 64.9864C11.2907 64.8956 10.9227 64.3804 11.0135 63.8356L12.5135 54.8356C12.6043 54.2908 13.1195 53.9228 13.6643 54.0136Z" fill="#FFECC9"/>
<path d="M8.68642 69.6584L7.5 83.5L38 66H12.6718C10.5951 66 8.86378 67.5893 8.68642 69.6584Z" fill="#FFC149"/>
<path fill-rule="evenodd" clip-rule="evenodd" d="M12.8157 69C12.3008 69 11.87 69.3911 11.8204 69.9037L10.4953 83.5963C10.4421 84.146 9.95334 84.5485 9.40362 84.4953C8.85391 84.4422 8.4514 83.9534 8.5046 83.4037L9.82969 69.711C9.97851 68.1733 11.2708 67 12.8157 67H39.9999C40.5522 67 41 67.4477 41 68C41 68.5523 40.5522 69 39.9999 69H12.8157Z" fill="#FFE4A0"/>
<path fill-rule="evenodd" clip-rule="evenodd" d="M12.8402 69C12.3201 69 11.8869 69.3987 11.8437 69.917L11.4965 74.083C11.4506 74.6334 10.9673 75.0424 10.4169 74.9965C9.86651 74.9507 9.45752 74.4673 9.50339 73.917L9.85057 69.7509C9.98015 68.196 11.2799 67 12.8402 67H16.9999C17.5522 67 17.9999 67.4477 17.9999 68C17.9999 68.5523 17.5522 69 16.9999 69H12.8402Z" fill="#FFFAED"/>
<path d="M42 85.5C42 86.3284 41.3284 87 40.5 87C39.6716 87 39 86.3284 39 85.5C39 84.6716 39.6716 84 40.5 84C41.3284 84 42 84.6716 42 85.5Z" fill="#FFC24B"/>
<path d="M45 83C45 83.5523 44.5523 84 44 84C43.4477 84 43 83.5523 43 83C43 82.4477 43.4477 82 44 82C44.5523 82 45 82.4477 45 83Z" fill="#FFC24B"/>
<path d="M36 86C36 86.5523 36.4477 87 37 87C37.5523 87 38 86.5523 38 86C38 85.4477 37.5523 85 37 85C36.4477 85 36 85.4477 36 86Z" fill="#FFC24B"/>
<path d="M40 81C40 81.5523 40.4477 82 41 82C41.5523 82 42 81.5523 42 81C42 80.4477 41.5523 80 41 80C40.4477 80 40 80.4477 40 81Z" fill="#FFC24B"/>
<path d="M36 82.5C36 83.3284 36.6716 84 37.5 84C38.3284 84 39 83.3284 39 82.5C39 81.6716 38.3284 81 37.5 81C36.6716 81 36 81.6716 36 82.5Z" fill="#FFC24B"/>
<path d="M31 85C31 85.5523 31.4477 86 32 86C32.5523 86 33 85.5523 33 85C33 84.4477 32.5523 84 32 84C31.4477 84 31 84.4477 31 85Z" fill="#FFC24B"/>
<path d="M43 78C43 78.5523 43.4477 79 44 79C44.5523 79 45 78.5523 45 78C45 77.4477 44.5523 77 44 77C43.4477 77 43 77.4477 43 78Z" fill="#FFC24B"/>
<path d="M38.7066 9.64993C38.8763 8.69538 39.7062 8 40.6757 8H57.3241C58.2936 8 59.1236 8.69538 59.2932 9.64993L66.9999 53L68.622 71.6535C68.8252 73.9905 66.9829 76 64.637 76H33.3628C31.017 76 29.1747 73.9905 29.3779 71.6535L30.9999 53L38.7066 9.64993Z" fill="#FCB326"/>
<path fill-rule="evenodd" clip-rule="evenodd" d="M29.0152 52.7378L36.7375 9.29987C37.0769 7.39075 38.7367 6 40.6758 6H57.3242C59.2632 6 60.923 7.39075 61.2624 9.29987L68.9847 52.7378L70.6145 71.4802C70.9193 74.9858 68.1559 78 64.637 78H33.3629C29.8441 78 27.0806 74.9858 27.3854 71.4802L29.0152 52.7378ZM40.6758 8C39.7062 8 38.8763 8.69538 38.7066 9.64993L31 53L29.3779 71.6535C29.1747 73.9905 31.017 76 33.3629 76H64.637C66.9829 76 68.8252 73.9905 68.622 71.6535L67 53L59.2933 9.64993C59.1236 8.69537 58.2937 8 57.3242 8H40.6758Z" fill="#5B3303"/>
<path d="M33.3801 76H64.6198C66.9719 76 68.8163 73.9803 68.6034 71.6379L67.3307 57.6379C67.1434 55.5775 65.4159 54 63.3471 54H34.6528C32.584 54 30.8565 55.5775 30.6692 57.6379L29.3965 71.6379C29.1836 73.9803 31.028 76 33.3801 76Z" fill="#FFCF23"/>
<path d="M42 10L35 50L56 10H42Z" fill="#FFC555"/>
<path fill-rule="evenodd" clip-rule="evenodd" d="M41.1643 9.01361C41.7091 9.1044 42.0771 9.61963 41.9863 10.1644L34.9863 52.1644C34.8955 52.7092 34.3803 53.0772 33.8355 52.9864C33.2907 52.8956 32.9227 52.3804 33.0135 51.8356L40.0135 9.8356C40.1043 9.29083 40.6195 8.92281 41.1643 9.01361Z" fill="#FFD179"/>
<path fill-rule="evenodd" clip-rule="evenodd" d="M35.6643 42.0136C36.2091 42.1044 36.5771 42.6196 36.4863 43.1644L34.9863 52.1644C34.8955 52.7092 34.3803 53.0772 33.8355 52.9864C33.2907 52.8956 32.9227 52.3804 33.0135 51.8356L34.5135 42.8356C34.6043 42.2908 35.1195 41.9228 35.6643 42.0136Z" fill="#FFECC9"/>
<path d="M30.6864 57.6584L29.5 71.5L60 54H34.6718C32.5951 54 30.8638 55.5893 30.6864 57.6584Z" fill="#FFDD65"/>
<path fill-rule="evenodd" clip-rule="evenodd" d="M34.8157 57C34.3008 57 33.87 57.3911 33.8204 57.9037L32.4953 71.5963C32.4421 72.146 31.9533 72.5485 31.4036 72.4953C30.8539 72.4422 30.4514 71.9534 30.5046 71.4037L31.8297 57.711C31.9785 56.1733 33.2708 55 34.8157 55H61.9999C62.5522 55 63 55.4477 63 56C63 56.5523 62.5522 57 61.9999 57H34.8157Z" fill="#FFF5A0"/>
<path fill-rule="evenodd" clip-rule="evenodd" d="M34.8402 57C34.3201 57 33.8869 57.3987 33.8437 57.917L33.4965 62.083C33.4506 62.6334 32.9673 63.0424 32.4169 62.9965C31.8665 62.9507 31.4575 62.4673 31.5034 61.917L31.8506 57.7509C31.9801 56.196 33.2799 55 34.8402 55H38.9999C39.5522 55 39.9999 55.4477 39.9999 56C39.9999 56.5523 39.5522 57 38.9999 57H34.8402Z" fill="#FFFAED"/>
<path d="M59 38.5C59 39.3284 57.8807 40 56.5 40C55.1193 40 54 39.3284 54 38.5C54 37.6716 55.1193 37 56.5 37C57.8807 37 59 37.6716 59 38.5Z" fill="#C48714"/>
<path d="M60 32C60 32.5523 59.1046 33 58 33C56.8954 33 56 32.5523 56 32C56 31.4477 56.8954 31 58 31C59.1046 31 60 31.4477 60 32Z" fill="#C48714"/>
<path d="M57 27C57 27.5523 56.1046 28 55 28C53.8954 28 53 27.5523 53 27C53 26.4477 53.8954 26 55 26C56.1046 26 57 26.4477 57 27Z" fill="#C48714"/>
<path d="M58 20.5C58 20.7761 57.5523 21 57 21C56.4477 21 56 20.7761 56 20.5C56 20.2239 56.4477 20 57 20C57.5523 20 58 20.2239 58 20.5Z" fill="#C48714"/>
<path d="M60 24.5C60 24.7761 59.5523 25 59 25C58.4477 25 58 24.7761 58 24.5C58 24.2239 58.4477 24 59 24C59.5523 24 60 24.2239 60 24.5Z" fill="#C48714"/>
<path d="M55 30.5C55 30.7761 54.5523 31 54 31C53.4477 31 53 30.7761 53 30.5C53 30.2239 53.4477 30 54 30C54.5523 30 55 30.2239 55 30.5Z" fill="#C48714"/>
<path d="M61 35.5C61 35.7761 60.5523 36 60 36C59.4477 36 59 35.7761 59 35.5C59 35.2239 59.4477 35 60 35C60.5523 35 61 35.2239 61 35.5Z" fill="#C48714"/>
<path d="M56 34.5C56 34.7761 55.5523 35 55 35C54.4477 35 54 34.7761 54 34.5C54 34.2239 54.4477 34 55 34C55.5523 34 56 34.2239 56 34.5Z" fill="#C48714"/>
<path d="M63 43C63 43.5523 62.1046 44 61 44C59.8954 44 59 43.5523 59 43C59 42.4477 59.8954 42 61 42C62.1046 42 63 42.4477 63 43Z" fill="#C48714"/>
<path d="M64 73.5C64 74.3284 63.3284 75 62.5 75C61.6716 75 61 74.3284 61 73.5C61 72.6716 61.6716 72 62.5 72C63.3284 72 64 72.6716 64 73.5Z" fill="#FFDC81"/>
<path d="M67 71C67 71.5523 66.5523 72 66 72C65.4477 72 65 71.5523 65 71C65 70.4477 65.4477 70 66 70C66.5523 70 67 70.4477 67 71Z" fill="#FFDC81"/>
<path d="M58 74C58 74.5523 58.4477 75 59 75C59.5523 75 60 74.5523 60 74C60 73.4477 59.5523 73 59 73C58.4477 73 58 73.4477 58 74Z" fill="#FFDC81"/>
<path d="M62 69C62 69.5523 62.4477 70 63 70C63.5523 70 64 69.5523 64 69C64 68.4477 63.5523 68 63 68C62.4477 68 62 68.4477 62 69Z" fill="#FFDC81"/>
<path d="M58 70.5C58 71.3284 58.6716 72 59.5 72C60.3284 72 61 71.3284 61 70.5C61 69.6716 60.3284 69 59.5 69C58.6716 69 58 69.6716 58 70.5Z" fill="#FFDC81"/>
<path d="M53 73C53 73.5523 53.4477 74 54 74C54.5523 74 55 73.5523 55 73C55 72.4477 54.5523 72 54 72C53.4477 72 53 72.4477 53 73Z" fill="#FFDC81"/>
<path d="M65 66C65 66.5523 65.4477 67 66 67C66.5523 67 67 66.5523 67 66C67 65.4477 66.5523 65 66 65C65.4477 65 65 65.4477 65 66Z" fill="#FFDC81"/>
</svg>
