<svg width="76" height="86" viewBox="0 0 76 86" fill="none" xmlns="http://www.w3.org/2000/svg">
<path d="M50.5418 38.2083L69.9715 13.2601C71.3617 11.4749 70.3507 8.85194 68.122 8.46169L27.1091 1.28022C25.786 1.04855 24.4702 1.72457 23.888 2.93508L7.13838 37.7646C6.2764 39.557 7.36546 41.6767 9.32456 42.0198L24.6156 44.6973C25.2361 44.8059 25.6028 45.4542 25.3763 46.0419L15.5549 71.5278C14.5304 74.1864 17.4411 76.6419 19.8891 75.1843L65.9577 47.7538C68.3486 46.3302 67.6812 42.701 64.9403 42.2211L51.1582 39.8078C50.4153 39.6777 50.0783 38.8034 50.5418 38.2083Z" fill="#FFB547" stroke="#604104" stroke-width="2" stroke-linecap="round" stroke-linejoin="round"/>
<path d="M24.7893 3.36869C25.1773 2.56169 26.0546 2.11101 26.9366 2.26546L43.2718 5.12578L30.5625 32.125L12.5676 28.7825L24.7893 3.36869Z" fill="#FFC369"/>
<path d="M18 72L28.125 46.9375" stroke="#FFE7A9" stroke-width="2" stroke-linecap="round" stroke-linejoin="round"/>
<path d="M65.4461 46.8946L19.3774 74.3251L56.0126 43.5648L55 41.5312L64.7678 43.2062C66.5951 43.5261 67.04 45.9456 65.4461 46.8946Z" fill="#C87719"/>
<path d="M69.1826 12.6456L49.7529 37.5939C48.8298 38.7791 49.4946 40.5185 50.9679 40.7896L41 39L60.0001 8.05469L67.9496 9.44667C69.4354 9.70684 70.1094 11.4555 69.1826 12.6456Z" fill="#C87719"/>
<path d="M19.889 75.1845C19.9367 75.1561 19.9819 75.1238 20.0242 75.088L54.9197 45.499C56.8521 43.8605 56.0088 40.7125 53.5161 40.2593L42.617 38.2776L59.3118 11.0869C60.4202 9.28174 59.3593 6.92753 57.2727 6.56217L27.1091 1.28044C25.786 1.04877 24.4702 1.72479 23.888 2.9353L7.13837 37.7648C6.27639 39.5572 7.36545 41.677 9.32455 42.02L24.6156 44.6975C25.236 44.8061 25.6027 45.4544 25.3763 46.0421L15.5549 71.5281C14.5304 74.1866 17.441 76.6421 19.889 75.1845Z" stroke="#604104" stroke-width="2" stroke-linecap="round" stroke-linejoin="round"/>
<path d="M41 39.0002L58.4597 10.5639C59.1986 9.36045 58.4913 7.79097 57.1002 7.5474L53.5 6.91699L37.5 38L41 39.0002Z" fill="#E78F28"/>
<path d="M26 5L10 38" stroke="#FFE7A9" stroke-width="2" stroke-linecap="round" stroke-linejoin="round"/>
<path d="M10 38L14.5 28.7188" stroke="#FFF5DB" stroke-width="2" stroke-linecap="round" stroke-linejoin="round"/>
<ellipse cx="56.7499" cy="24.1095" rx="0.75" ry="0.890625" transform="rotate(24.2737 56.7499 24.1095)" fill="#AD6209"/>
<ellipse cx="53.9501" cy="29.3546" rx="0.75" ry="0.890625" transform="rotate(24.2737 53.9501 29.3546)" fill="#AD6209"/>
<ellipse cx="54.2676" cy="26.1478" rx="1.02347" ry="1.21537" transform="rotate(24.2737 54.2676 26.1478)" fill="#AD6209"/>
<ellipse cx="60.5312" cy="20.1407" rx="0.75" ry="0.890625" transform="rotate(24.2737 60.5312 20.1407)" fill="#AD6209"/>
<ellipse cx="58.133" cy="20.9007" rx="0.536682" ry="0.63731" transform="rotate(24.2737 58.133 20.9007)" fill="#AD6209"/>
<ellipse cx="59.1115" cy="23.3079" rx="0.536682" ry="0.63731" transform="rotate(24.2737 59.1115 23.3079)" fill="#AD6209"/>
<ellipse cx="56.0544" cy="27.4329" rx="0.536682" ry="0.63731" transform="rotate(24.2737 56.0544 27.4329)" fill="#AD6209"/>
<ellipse cx="51.2419" cy="30.8348" rx="0.536682" ry="0.63731" transform="rotate(24.2737 51.2419 30.8348)" fill="#AD6209"/>
<ellipse cx="56.0544" cy="21.3416" rx="0.536682" ry="0.63731" transform="rotate(24.2737 56.0544 21.3416)" fill="#AD6209"/>
<ellipse cx="59.1115" cy="16.3416" rx="0.536682" ry="0.63731" transform="rotate(24.2737 59.1115 16.3416)" fill="#AD6209"/>
<ellipse cx="62.9865" cy="16.9666" rx="0.536682" ry="0.63731" transform="rotate(24.2737 62.9865 16.9666)" fill="#AD6209"/>
<path d="M33.125 60.4062L52.3125 43.3438" stroke="#F0A637" stroke-width="2" stroke-linecap="round" stroke-linejoin="round"/>
<path d="M36.875 35.125L50.5 8.0625" stroke="#F0A637" stroke-width="2" stroke-linecap="round" stroke-linejoin="round"/>
<ellipse cx="44.7968" cy="43.3436" rx="0.875" ry="1" transform="rotate(15.4119 44.7968 43.3436)" fill="#FFC670"/>
<ellipse cx="41.9682" cy="47.1713" rx="0.595117" ry="0.680133" transform="rotate(15.4119 41.9682 47.1713)" fill="#FFC670"/>
<ellipse cx="38.0026" cy="49.0316" rx="0.595117" ry="0.680133" transform="rotate(15.4119 38.0026 49.0316)" fill="#FFC670"/>
<ellipse cx="41.9682" cy="43.3754" rx="0.595117" ry="0.680133" transform="rotate(15.4119 41.9682 43.3754)" fill="#FFC670"/>
<ellipse cx="48.5932" cy="42.6444" rx="0.595117" ry="0.680133" transform="rotate(15.4119 48.5932 42.6444)" fill="#FFC670"/>
<ellipse cx="45.9061" cy="45.4152" rx="0.416839" ry="0.476388" transform="rotate(15.4119 45.9061 45.4152)" fill="#FFC670"/>
<ellipse cx="39.9999" cy="50.4152" rx="0.416839" ry="0.476388" transform="rotate(15.4119 39.9999 50.4152)" fill="#FFC670"/>
<ellipse cx="40.9383" cy="41.1413" rx="0.416839" ry="0.476388" transform="rotate(15.4119 40.9383 41.1413)" fill="#FFC670"/>
<ellipse cx="46.7098" cy="41.8308" rx="0.416839" ry="0.476388" transform="rotate(15.4119 46.7098 41.8308)" fill="#FFC670"/>
<ellipse cx="44.2159" cy="46.2072" rx="0.416839" ry="0.476388" transform="rotate(15.4119 44.2159 46.2072)" fill="#FFC670"/>
<ellipse cx="39.9999" cy="44.028" rx="0.416839" ry="0.476388" transform="rotate(15.4119 39.9999 44.028)" fill="#FFC670"/>
<ellipse cx="40.6852" cy="45.6369" rx="0.416839" ry="0.476388" transform="rotate(15.4119 40.6852 45.6369)" fill="#FFC670"/>
<ellipse cx="36.5997" cy="53.0119" rx="0.416839" ry="0.476388" transform="rotate(15.4119 36.5997 53.0119)" fill="#FFC670"/>
</svg>
