<svg width="84" height="80" viewBox="0 0 84 80" fill="none" xmlns="http://www.w3.org/2000/svg">
<path d="M54 75C54.3955 75 54.7538 74.7669 54.9142 74.4053C55.0744 74.0439 55.0067 73.6219 54.7413 73.3288C54.7412 73.3287 54.7412 73.3287 54.7411 73.3286L54.7409 73.3284L54.7383 73.3255L54.7263 73.3121L54.6757 73.2553C54.6306 73.2043 54.563 73.1272 54.4758 73.0261C54.3013 72.8237 54.0485 72.525 53.7395 72.1444C53.121 71.3826 52.2801 70.2961 51.3935 69.0009C49.6053 66.3889 47.6922 63.0159 46.9763 59.7838C46.4841 57.5613 46.8085 54.6213 47.3611 51.9763C48.0664 48.6001 45.636 45 42 45C38.364 45 35.9336 48.6001 36.6389 51.9763C37.1915 54.6213 37.5159 57.5613 37.0237 59.7838C36.3078 63.0159 34.3947 66.3889 32.6065 69.0009C31.7199 70.2961 30.879 71.3826 30.2605 72.1444C29.9515 72.525 29.6987 72.8237 29.5242 73.0261C29.437 73.1272 29.3694 73.2043 29.3243 73.2553L29.2737 73.3121L29.2617 73.3255L29.2591 73.3284L29.2589 73.3286C29.2588 73.3287 29.2588 73.3287 29.2587 73.3288L29.2587 73.3288C28.9933 73.6219 28.9256 74.0439 29.0858 74.4053C29.2462 74.7669 29.6045 75 30 75H54Z" fill="#F6B307" stroke="#5B3303" stroke-width="2" stroke-linejoin="round"/>
<path fill-rule="evenodd" clip-rule="evenodd" d="M50 74H54C54 74 47.5155 66.8421 46 60C45.4595 57.5595 45.8239 54.444 46.3822 51.7718C46.9773 48.9236 44.9097 46 42 46C41.3422 46 40.7274 46.1494 40.1768 46.4136C41.6429 47.1096 42.3822 48.7449 42.3822 51.7718C42.3822 55.5805 42.4595 61.0595 43 63.5C44.5155 70.3421 50 74 50 74Z" fill="#C18B00"/>
<path d="M36 70C37 68.5 38 66.5 38.5 64.5" stroke="#FFCB43" stroke-width="2" stroke-linecap="round" stroke-linejoin="round"/>
<mask id="path-4-outside-1_201_5479" maskUnits="userSpaceOnUse" x="58" y="6" width="26" height="26" fill="black">
<rect fill="white" x="58" y="6" width="26" height="26"/>
<path fill-rule="evenodd" clip-rule="evenodd" d="M71 30C77.0751 30 82 25.0751 82 19C82 12.9249 77.0751 8 71 8C64.9249 8 60 12.9249 60 19C60 25.0751 64.9249 30 71 30ZM71 25C74.3137 25 77 22.3137 77 19C77 15.6863 74.3137 13 71 13C67.6863 13 65 15.6863 65 19C65 22.3137 67.6863 25 71 25Z"/>
</mask>
<path fill-rule="evenodd" clip-rule="evenodd" d="M71 30C77.0751 30 82 25.0751 82 19C82 12.9249 77.0751 8 71 8C64.9249 8 60 12.9249 60 19C60 25.0751 64.9249 30 71 30ZM71 25C74.3137 25 77 22.3137 77 19C77 15.6863 74.3137 13 71 13C67.6863 13 65 15.6863 65 19C65 22.3137 67.6863 25 71 25Z" fill="#F6B307"/>
<path d="M80 19C80 23.9706 75.9706 28 71 28V32C78.1797 32 84 26.1797 84 19H80ZM71 10C75.9706 10 80 14.0294 80 19H84C84 11.8203 78.1797 6 71 6V10ZM62 19C62 14.0294 66.0294 10 71 10V6C63.8203 6 58 11.8203 58 19H62ZM71 28C66.0294 28 62 23.9706 62 19H58C58 26.1797 63.8203 32 71 32V28ZM75 19C75 21.2091 73.2091 23 71 23V27C75.4183 27 79 23.4183 79 19H75ZM71 15C73.2091 15 75 16.7909 75 19H79C79 14.5817 75.4183 11 71 11V15ZM67 19C67 16.7909 68.7909 15 71 15V11C66.5817 11 63 14.5817 63 19H67ZM71 23C68.7909 23 67 21.2091 67 19H63C63 23.4183 66.5817 27 71 27V23Z" fill="#5B3303" mask="url(#path-4-outside-1_201_5479)"/>
<path fill-rule="evenodd" clip-rule="evenodd" d="M81 17C81 23.0751 76.0751 28 70 28C66.0907 28 62.6577 25.9607 60.7068 22.8879C62.2775 27.0443 66.2936 30 71 30C77.0751 30 82 25.0751 82 19C82 16.8341 81.374 14.8145 80.2931 13.1121C80.75 14.3209 81 15.6312 81 17ZM65.2251 20.6338C65.0784 20.1144 65 19.5663 65 19C65 15.6863 67.6863 13 71 13C72.9477 13 74.6787 13.9281 75.7748 15.3662C75.0634 12.8465 72.7473 11 70 11C66.6863 11 64 13.6863 64 17C64 18.3659 64.4564 19.6253 65.2251 20.6338Z" fill="#D29700"/>
<mask id="path-7-outside-2_201_5479" maskUnits="userSpaceOnUse" x="0" y="6" width="26" height="26" fill="black">
<rect fill="white" y="6" width="26" height="26"/>
<path fill-rule="evenodd" clip-rule="evenodd" d="M13 30C19.0751 30 24 25.0751 24 19C24 12.9249 19.0751 8 13 8C6.92487 8 2 12.9249 2 19C2 25.0751 6.92487 30 13 30ZM13 25C16.3137 25 19 22.3137 19 19C19 15.6863 16.3137 13 13 13C9.68629 13 7 15.6863 7 19C7 22.3137 9.68629 25 13 25Z"/>
</mask>
<path fill-rule="evenodd" clip-rule="evenodd" d="M13 30C19.0751 30 24 25.0751 24 19C24 12.9249 19.0751 8 13 8C6.92487 8 2 12.9249 2 19C2 25.0751 6.92487 30 13 30ZM13 25C16.3137 25 19 22.3137 19 19C19 15.6863 16.3137 13 13 13C9.68629 13 7 15.6863 7 19C7 22.3137 9.68629 25 13 25Z" fill="#F6B307"/>
<path d="M22 19C22 23.9706 17.9706 28 13 28V32C20.1797 32 26 26.1797 26 19H22ZM13 10C17.9706 10 22 14.0294 22 19H26C26 11.8203 20.1797 6 13 6V10ZM4 19C4 14.0294 8.02944 10 13 10V6C5.8203 6 0 11.8203 0 19H4ZM13 28C8.02944 28 4 23.9706 4 19H0C0 26.1797 5.8203 32 13 32V28ZM17 19C17 21.2091 15.2091 23 13 23V27C17.4183 27 21 23.4183 21 19H17ZM13 15C15.2091 15 17 16.7909 17 19H21C21 14.5817 17.4183 11 13 11V15ZM9 19C9 16.7909 10.7909 15 13 15V11C8.58172 11 5 14.5817 5 19H9ZM13 23C10.7909 23 9 21.2091 9 19H5C5 23.4183 8.58172 27 13 27V23Z" fill="#5B3303" mask="url(#path-7-outside-2_201_5479)"/>
<path fill-rule="evenodd" clip-rule="evenodd" d="M21.2622 26.2622C19.3248 27.9664 16.7831 29 14 29C7.92487 29 3 24.0751 3 18C3 15.2169 4.03357 12.6752 5.73781 10.7378C3.44614 12.7537 2 15.7079 2 19C2 25.0751 6.92487 30 13 30C16.292 30 19.2463 28.5538 21.2622 26.2622ZM9.28675 14.2867C10.3082 13.4809 11.5979 13 13 13C16.3137 13 19 15.6863 19 19C19 20.402 18.5191 21.6918 17.7133 22.7132C19.106 21.6145 20 19.9116 20 18C20 14.6863 17.3137 12 14 12C12.0883 12 10.3855 12.894 9.28675 14.2867Z" fill="#D29700"/>
<path d="M22 5C17.0294 5 13 9.02944 13 14V26C13 42.0163 25.9837 55 42 55C58.0163 55 71 42.0163 71 26V14C71 9.02944 66.9706 5 62 5H22Z" fill="#FFCF23" stroke="#5B3303" stroke-width="2" stroke-linecap="round" stroke-linejoin="round"/>
<path fill-rule="evenodd" clip-rule="evenodd" d="M35 53.1179C37.2373 53.6937 39.5829 54 42 54C57.464 54 70 41.464 70 26V6H56V26C56 39.0469 47.0766 50.0096 35 53.1179Z" fill="#FFC429"/>
<path d="M14 6V26C14 35.5458 18.7768 43.9759 26.0705 49.0303C29.5398 51.4344 36.127 43.1894 36.0185 38.9699C36.0059 38.4805 36 37.99 36 37.5V6H14Z" fill="#FFDB5B"/>
<path fill-rule="evenodd" clip-rule="evenodd" d="M27.5342 49.9786C31.7561 52.5311 36.7065 54 42 54C57.464 54 70 41.464 70 26V6H65.9997V24C65.9997 39.464 53.4637 52 37.9998 52C34.2997 52 30.7673 51.2823 27.5342 49.9786Z" fill="#F5B40C"/>
<path d="M70 6H14V10H70V6Z" fill="#D29803"/>
<path d="M18 11C18 24.5 18 33.5 22.9999 38.5" stroke="#FFEBA6" stroke-width="4" stroke-linecap="round" stroke-linejoin="round"/>
<path d="M18 13C18 16.2601 17.9296 16.2577 18 19" stroke="white" stroke-width="2" stroke-linecap="round" stroke-linejoin="round"/>
<path d="M24 73C22.3431 73 21 74.3431 21 76C21 77.6569 22.3431 79 24 79H60C61.6569 79 63 77.6569 63 76C63 74.3431 61.6569 73 60 73H24Z" fill="#FFD84F" stroke="#5B3303" stroke-width="2" stroke-linejoin="round"/>
<path d="M8 1C6.34315 1 5 2.34315 5 4C5 5.65685 6.34315 7 8 7H76C77.6569 7 79 5.65685 79 4C79 2.34315 77.6569 1 76 1H8Z" fill="#FFD84F" stroke="#5B3303" stroke-width="2" stroke-linejoin="round"/>
<path d="M9 3.5H60" stroke="#FFEBA6" stroke-width="2" stroke-linecap="round" stroke-linejoin="round"/>
<path d="M24 75H53" stroke="#FFEBA6" stroke-width="2" stroke-linecap="round" stroke-linejoin="round"/>
<path d="M15 3.5H21" stroke="white" stroke-width="2" stroke-linecap="round" stroke-linejoin="round"/>
<circle cx="50.5" cy="46.5" r="1.5" fill="#E6A809"/>
<circle cx="56" cy="43" r="1" fill="#E6A809"/>
<circle cx="48" cy="50" r="1" fill="#E6A809"/>
<circle cx="45" cy="47" r="1" fill="#E6A809"/>
<circle cx="41" cy="50" r="1" fill="#E6A809"/>
<circle cx="65" cy="36" r="1" fill="#E6A809"/>
<circle cx="56" cy="39" r="1" fill="#E6A809"/>
<circle cx="66" cy="31" r="1" fill="#E6A809"/>
<circle cx="51" cy="41" r="1" fill="#E6A809"/>
<circle cx="55" cy="47" r="1" fill="#E6A809"/>
<circle cx="61" cy="43" r="1" fill="#E6A809"/>
<circle cx="59" cy="39" r="1" fill="#E6A809"/>
<circle cx="63.5" cy="38.5" r="0.5" fill="#E6A809"/>
<circle cx="62.5" cy="34.5" r="0.5" fill="#E6A809"/>
<circle cx="59.5" cy="35.5" r="0.5" fill="#E6A809"/>
<circle cx="62.5" cy="31.5" r="0.5" fill="#E6A809"/>
<circle cx="56.5" cy="35.5" r="0.5" fill="#E6A809"/>
<circle cx="40.5" cy="46.5" r="0.5" fill="#E6A809"/>
<circle cx="61.5" cy="39.5" r="0.5" fill="#E6A809"/>
<circle cx="58.5" cy="45.5" r="0.5" fill="#E6A809"/>
<circle cx="53.5" cy="43.5" r="0.5" fill="#E6A809"/>
<circle cx="48.5" cy="43.5" r="0.5" fill="#E6A809"/>
<circle cx="44.5" cy="50.5" r="0.5" fill="#E6A809"/>
<path d="M9.50017 10.5C7.5 11.5 4 14 4 20" stroke="#FFD953" stroke-width="2" stroke-linecap="round" stroke-linejoin="round"/>
<path d="M31.8014 24.6199C31.4415 24.6929 31.1506 24.9571 31.0435 25.3083C30.9364 25.6595 31.0303 26.0411 31.2882 26.3024L35.9164 30.9923L34.7689 36.8064C34.6949 37.1816 34.8413 37.5661 35.1461 37.7971C35.451 38.028 35.8608 38.0649 36.202 37.892L42 34.9544L47.798 37.892C48.1392 38.0649 48.549 38.028 48.8539 37.7971C49.1587 37.5661 49.3051 37.1816 49.2311 36.8064L48.0836 30.9923L52.7118 26.3024C52.9697 26.0411 53.0636 25.6595 52.9565 25.3083C52.8494 24.9571 52.5585 24.6929 52.1986 24.6199L46.3841 23.4415L42.8605 17.4905C42.6805 17.1865 42.3533 17 42 17C41.6467 17 41.3195 17.1865 41.1395 17.4905L39.2645 20.6572L37.6159 23.4415L31.8014 24.6199Z" fill="#FFEBA6" stroke="#F5B40C" stroke-width="2" stroke-linecap="round" stroke-linejoin="round"/>
<path d="M35.5 26.5L40 26L42 22" stroke="white" stroke-width="2" stroke-linecap="round" stroke-linejoin="round"/>
</svg>
