<svg width="84" height="59" viewBox="0 0 84 59" fill="none" xmlns="http://www.w3.org/2000/svg">
<path d="M27.6367 1.96356C19.1961 0.0846279 9.5002 4.4487 7.77299 13.342L1.71677 44.5251C0.583269 50.3615 4.15742 56.0803 9.90023 57.6191C15.0685 59.0039 20.5001 56.5813 22.9234 51.8122L31.445 35.9636H42.0744H52.7037L61.2254 51.8122C63.6487 56.5813 69.0802 59.0039 74.2485 57.6191C79.9913 56.0803 83.5655 50.3615 82.432 44.5251L76.3757 13.342C74.6485 4.4487 64.9526 0.084631 56.512 1.96356H27.6367Z" fill="#E39A2C" stroke="#604104" stroke-width="2" stroke-linejoin="round"/>
<path d="M27.5253 2.96356C19.4366 1.10744 10.3508 5.31522 8.75482 13.5327L4.39131 36.0001C3.59427 40.3335 3.64966 48.7063 10.0002 49.5001C14.0002 50.0001 17.0002 48.0001 21.0002 42.0001L30.8475 25.9636H53.1909L63.0381 42.0001C67.0381 48.0001 70.0381 50.0001 74.0381 49.5001C80.3887 48.7063 80.4441 40.3335 79.647 36.0001L75.2835 13.5327C73.6876 5.31522 64.6017 1.10744 56.513 2.96356H27.5253Z" fill="#FFB547"/>
<ellipse cx="19.5259" cy="16.3724" rx="8.5" ry="12" transform="rotate(23.0944 19.5259 16.3724)" fill="#FFC368"/>
<path d="M20 5C17 6 12.3096 8.45217 11 15C9.5 22.5 8 29 7 34" stroke="#FFD596" stroke-width="2" stroke-linecap="round" stroke-linejoin="round"/>
<path d="M11 15C11.7964 11.0178 13.8434 8.55052 16 7.00342" stroke="white" stroke-width="2" stroke-linecap="round" stroke-linejoin="round"/>
<circle cx="77.232" cy="37.8454" r="1" transform="rotate(-2.45148 77.232 37.8454)" fill="#E39A2C"/>
<circle cx="70.1529" cy="36.1466" r="1" transform="rotate(-2.45148 70.1529 36.1466)" fill="#E39A2C"/>
<circle cx="70.9381" cy="31.1084" r="1" transform="rotate(-2.45148 70.9381 31.1084)" fill="#E39A2C"/>
<circle cx="70.7242" cy="26.113" r="1" transform="rotate(-2.45148 70.7242 26.113)" fill="#E39A2C"/>
<circle cx="73.5504" cy="21.9884" r="1" transform="rotate(-2.45148 73.5504 21.9884)" fill="#E39A2C"/>
<circle cx="74.849" cy="28.9392" r="1" transform="rotate(-2.45148 74.849 28.9392)" fill="#E39A2C"/>
<circle cx="77.4459" cy="42.8408" r="1" transform="rotate(-2.45148 77.4459 42.8408)" fill="#E39A2C"/>
<circle cx="73.364" cy="41.0138" r="2" transform="rotate(-2.45148 73.364 41.0138)" fill="#E39A2C"/>
<circle cx="74.5845" cy="34.4555" r="1.5" transform="rotate(-2.45148 74.5845 34.4555)" fill="#E39A2C"/>
<path d="M29 5H48" stroke="#FFD596" stroke-width="2" stroke-linecap="round" stroke-linejoin="round"/>
<mask id="path-16-outside-1_201_3532" maskUnits="userSpaceOnUse" x="14" y="7" width="20" height="20" fill="black">
<rect fill="white" x="14" y="7" width="20" height="20"/>
<path fill-rule="evenodd" clip-rule="evenodd" d="M23 9C22.4477 9 22 9.44772 22 10V15H17C16.4477 15 16 15.4477 16 16V18C16 18.5523 16.4477 19 17 19H22V24C22 24.5523 22.4477 25 23 25H25C25.5523 25 26 24.5523 26 24V19H31C31.5523 19 32 18.5523 32 18V16C32 15.4477 31.5523 15 31 15H26V10C26 9.44772 25.5523 9 25 9H23Z"/>
</mask>
<path fill-rule="evenodd" clip-rule="evenodd" d="M23 9C22.4477 9 22 9.44772 22 10V15H17C16.4477 15 16 15.4477 16 16V18C16 18.5523 16.4477 19 17 19H22V24C22 24.5523 22.4477 25 23 25H25C25.5523 25 26 24.5523 26 24V19H31C31.5523 19 32 18.5523 32 18V16C32 15.4477 31.5523 15 31 15H26V10C26 9.44772 25.5523 9 25 9H23Z" fill="#5A5A5A"/>
<path d="M22 15V17H24V15H22ZM22 19H24V17H22V19ZM26 19V17H24V19H26ZM26 15H24V17H26V15ZM24 10C24 10.5523 23.5523 11 23 11V7C21.3431 7 20 8.34315 20 10H24ZM24 15V10H20V15H24ZM17 17H22V13H17V17ZM18 16C18 16.5523 17.5523 17 17 17V13C15.3431 13 14 14.3431 14 16H18ZM18 18V16H14V18H18ZM17 17C17.5523 17 18 17.4477 18 18H14C14 19.6569 15.3431 21 17 21V17ZM22 17H17V21H22V17ZM24 24V19H20V24H24ZM23 23C23.5523 23 24 23.4477 24 24H20C20 25.6569 21.3431 27 23 27V23ZM25 23H23V27H25V23ZM24 24C24 23.4477 24.4477 23 25 23V27C26.6569 27 28 25.6569 28 24H24ZM24 19V24H28V19H24ZM31 17H26V21H31V17ZM30 18C30 17.4477 30.4477 17 31 17V21C32.6569 21 34 19.6569 34 18H30ZM30 16V18H34V16H30ZM31 17C30.4477 17 30 16.5523 30 16H34C34 14.3431 32.6569 13 31 13V17ZM26 17H31V13H26V17ZM24 10V15H28V10H24ZM25 11C24.4477 11 24 10.5523 24 10H28C28 8.34315 26.6569 7 25 7V11ZM23 11H25V7H23V11Z" fill="#2F2F2F" mask="url(#path-16-outside-1_201_3532)"/>
<path d="M17 16H23V10" stroke="#8C8C8C" stroke-width="2" stroke-linecap="round" stroke-linejoin="round"/>
<circle cx="60" cy="11" r="3" fill="#BE62E9" stroke="#2F2F2F" stroke-width="2" stroke-linejoin="round"/>
<circle cx="60" cy="23" r="3" fill="#9DE962" stroke="#2F2F2F" stroke-width="2" stroke-linejoin="round"/>
<circle cx="54" cy="17" r="3" fill="#E9CB62" stroke="#2F2F2F" stroke-width="2" stroke-linejoin="round"/>
<circle cx="66" cy="17" r="3" fill="#62D0E9" stroke="#2F2F2F" stroke-width="2" stroke-linejoin="round"/>
</svg>
