<svg width="96" height="96" viewBox="0 0 96 96" fill="none" xmlns="http://www.w3.org/2000/svg">
<mask id="path-1-outside-1_201_7760" maskUnits="userSpaceOnUse" x="24" y="10" width="48" height="60" fill="black">
<rect fill="white" x="24" y="10" width="48" height="60"/>
<path fill-rule="evenodd" clip-rule="evenodd" d="M58 12H67.7143L52.8571 38L70 68H52L49.7143 64H58L48 46.5L38 64H46.2857L44 68H26L43.1429 38L28.2857 12H38L48 29.5L58 12Z"/>
</mask>
<path fill-rule="evenodd" clip-rule="evenodd" d="M58 12H67.7143L52.8571 38L70 68H52L49.7143 64H58L48 46.5L38 64H46.2857L44 68H26L43.1429 38L28.2857 12H38L48 29.5L58 12Z" fill="#139154"/>
<path d="M67.7143 12L69.4508 12.9923C69.8045 12.3733 69.802 11.6128 69.4441 10.9961C69.0863 10.3795 68.4272 10 67.7143 10V12ZM58 12V10C57.2823 10 56.6196 10.3846 56.2635 11.0077L58 12ZM52.8571 38L51.1207 37.0077C50.7693 37.6226 50.7693 38.3774 51.1207 38.9923L52.8571 38ZM70 68V70C70.7129 70 71.372 69.6205 71.7298 69.0039C72.0877 68.3872 72.0902 67.6267 71.7365 67.0077L70 68ZM52 68L50.2635 68.9923C50.6196 69.6154 51.2823 70 52 70V68ZM49.7143 64V62C49.0013 62 48.3423 62.3795 47.9845 62.9961C47.6266 63.6128 47.6241 64.3733 47.9778 64.9923L49.7143 64ZM58 64V66C58.7129 66 59.372 65.6205 59.7298 65.0039C60.0877 64.3872 60.0902 63.6267 59.7365 63.0077L58 64ZM48 46.5L49.7365 45.5077C49.3804 44.8846 48.7177 44.5 48 44.5C47.2823 44.5 46.6196 44.8846 46.2635 45.5077L48 46.5ZM38 64L36.2635 63.0077C35.9098 63.6267 35.9123 64.3872 36.2702 65.0039C36.628 65.6205 37.2871 66 38 66V64ZM46.2857 64L48.0222 64.9923C48.3759 64.3733 48.3734 63.6128 48.0155 62.9961C47.6577 62.3795 46.9987 62 46.2857 62V64ZM44 68V70C44.7177 70 45.3804 69.6154 45.7365 68.9923L44 68ZM26 68L24.2635 67.0077C23.9098 67.6267 23.9123 68.3872 24.2702 69.0039C24.628 69.6205 25.2871 70 26 70V68ZM43.1429 38L44.8793 38.9923C45.2307 38.3774 45.2307 37.6226 44.8793 37.0077L43.1429 38ZM28.2857 12V10C27.5728 10 26.9137 10.3795 26.5559 10.9961C26.198 11.6128 26.1955 12.3733 26.5492 12.9923L28.2857 12ZM38 12L39.7365 11.0077C39.3804 10.3846 38.7177 10 38 10V12ZM48 29.5L46.2635 30.4923C46.6196 31.1154 47.2823 31.5 48 31.5C48.7177 31.5 49.3804 31.1154 49.7365 30.4923L48 29.5ZM67.7143 10H58V14H67.7143V10ZM54.5936 38.9923L69.4508 12.9923L65.9778 11.0077L51.1207 37.0077L54.5936 38.9923ZM51.1207 38.9923L68.2635 68.9923L71.7365 67.0077L54.5936 37.0077L51.1207 38.9923ZM70 66H52V70H70V66ZM53.7365 67.0077L51.4508 63.0077L47.9778 64.9923L50.2635 68.9923L53.7365 67.0077ZM49.7143 66H58V62H49.7143V66ZM59.7365 63.0077L49.7365 45.5077L46.2635 47.4923L56.2635 64.9923L59.7365 63.0077ZM39.7365 64.9923L49.7365 47.4923L46.2635 45.5077L36.2635 63.0077L39.7365 64.9923ZM46.2857 62H38V66H46.2857V62ZM45.7365 68.9923L48.0222 64.9923L44.5492 63.0077L42.2635 67.0077L45.7365 68.9923ZM26 70H44V66H26V70ZM41.4064 37.0077L24.2635 67.0077L27.7365 68.9923L44.8793 38.9923L41.4064 37.0077ZM44.8793 37.0077L30.0222 11.0077L26.5492 12.9923L41.4064 38.9923L44.8793 37.0077ZM28.2857 14H38V10H28.2857V14ZM36.2635 12.9923L46.2635 30.4923L49.7365 28.5077L39.7365 11.0077L36.2635 12.9923ZM56.2635 11.0077L46.2635 28.5077L49.7365 30.4923L59.7365 12.9923L56.2635 11.0077Z" fill="#02532C" mask="url(#path-1-outside-1_201_7760)"/>
<mask id="path-3-outside-2_201_7760" maskUnits="userSpaceOnUse" x="8" y="6" width="80" height="35" fill="black">
<rect fill="white" x="8" y="6" width="80" height="35"/>
<path fill-rule="evenodd" clip-rule="evenodd" d="M28 8H10L27.3039 38.2819C31.0788 34.6836 35.7904 32.0594 41.0357 30.8125L28 8ZM54.9643 30.8125C60.2096 32.0594 64.9212 34.6836 68.6961 38.2819L86 8H68L54.9643 30.8125Z"/>
</mask>
<path fill-rule="evenodd" clip-rule="evenodd" d="M28 8H10L27.3039 38.2819C31.0788 34.6836 35.7904 32.0594 41.0357 30.8125L28 8ZM54.9643 30.8125C60.2096 32.0594 64.9212 34.6836 68.6961 38.2819L86 8H68L54.9643 30.8125Z" fill="#38C682"/>
<path d="M10 8V6C9.28706 6 8.62802 6.37952 8.27018 6.99615C7.91234 7.61278 7.9098 8.37327 8.26351 8.99228L10 8ZM28 8L29.7365 7.00772C29.3804 6.38457 28.7177 6 28 6V8ZM27.3039 38.2819L25.5675 39.2742C25.8725 39.8081 26.4063 40.172 27.0148 40.2609C27.6232 40.3498 28.2388 40.1538 28.6839 39.7296L27.3039 38.2819ZM41.0357 30.8125L41.4983 32.7583C42.1114 32.6126 42.62 32.1863 42.8707 31.6082C43.1214 31.03 43.0849 30.3674 42.7722 29.8202L41.0357 30.8125ZM54.9643 30.8125L53.2278 29.8202C52.9151 30.3674 52.8786 31.03 53.1293 31.6082C53.38 32.1863 53.8886 32.6126 54.5017 32.7583L54.9643 30.8125ZM68.6961 38.2819L67.3161 39.7296C67.7612 40.1538 68.3768 40.3498 68.9852 40.2609C69.5937 40.172 70.1275 39.8081 70.4325 39.2742L68.6961 38.2819ZM86 8L87.7365 8.99228C88.0902 8.37327 88.0877 7.61278 87.7298 6.99615C87.372 6.37952 86.7129 6 86 6V8ZM68 8V6C67.2823 6 66.6196 6.38457 66.2635 7.00772L68 8ZM10 10H28V6H10V10ZM29.0404 37.2896L11.7365 7.00772L8.26351 8.99228L25.5675 39.2742L29.0404 37.2896ZM28.6839 39.7296C32.2091 36.3692 36.6064 33.9212 41.4983 32.7583L40.5732 28.8667C34.9745 30.1976 29.9485 32.998 25.924 36.8342L28.6839 39.7296ZM26.2635 8.99228L39.2992 31.8048L42.7722 29.8202L29.7365 7.00772L26.2635 8.99228ZM54.5017 32.7583C59.3936 33.9212 63.7909 36.3692 67.3161 39.7296L70.076 36.8342C66.0515 32.998 61.0255 30.1976 55.4268 28.8667L54.5017 32.7583ZM84.2635 7.00772L66.9596 37.2896L70.4325 39.2742L87.7365 8.99228L84.2635 7.00772ZM68 10H86V6H68V10ZM56.7008 31.8048L69.7365 8.99228L66.2635 7.00772L53.2278 29.8202L56.7008 31.8048Z" fill="#02532C" mask="url(#path-3-outside-2_201_7760)"/>
<path d="M13 10L27.5 35" stroke="#4EE99E" stroke-width="2" stroke-linecap="round" stroke-linejoin="round"/>
<path d="M69 10L57.5 30" stroke="#4EE99E" stroke-width="2" stroke-linecap="round" stroke-linejoin="round"/>
<circle cx="48" cy="60" r="29" fill="#C27C3B" stroke="#672001" stroke-width="2" stroke-linejoin="round"/>
<circle cx="48" cy="60" r="23" fill="#FCCA9B"/>
<circle cx="60.6829" cy="78.4447" r="2" transform="rotate(-8.26953 60.6829 78.4447)" fill="#F2B275"/>
<circle cx="59.9598" cy="72.6115" r="1.87661" transform="rotate(-8.26953 59.9598 72.6115)" fill="#F2B275"/>
<circle cx="68.7003" cy="66.7001" r="1.5" transform="rotate(-8.26953 68.7003 66.7001)" fill="#F2B275"/>
<circle cx="49.9411" cy="81.0164" r="2" transform="rotate(-8.26953 49.9411 81.0164)" fill="#F2B275"/>
<circle cx="65.4486" cy="70.8755" r="1.80497" transform="rotate(-8.26953 65.4486 70.8755)" fill="#F2B275"/>
<circle cx="65.1334" cy="64.1335" r="1" transform="rotate(-8.26953 65.1334 64.1335)" fill="#F2B275"/>
<circle cx="53.1336" cy="77.1334" r="1" transform="rotate(-8.26953 53.1336 77.1334)" fill="#F2B275"/>
<circle cx="66.3328" cy="75.6025" r="1" transform="rotate(-8.26953 66.3328 75.6025)" fill="#F2B275"/>
<circle cx="55.1336" cy="80.1334" r="1" transform="rotate(-8.26953 55.1336 80.1334)" fill="#F2B275"/>
<circle cx="44.1472" cy="82.869" r="1" transform="rotate(-8.26953 44.1472 82.869)" fill="#F2B275"/>
<circle cx="48" cy="60" r="24" stroke="#A55833" stroke-width="2" stroke-linejoin="round"/>
<path d="M22 60C22 45.6406 33.6406 34 48 34" stroke="#EC9F58" stroke-width="2" stroke-linecap="round" stroke-linejoin="round"/>
<circle cx="48" cy="60" r="18" fill="#F6B981" stroke="#A55833" stroke-width="2"/>
<path d="M32 60C32 51.1634 39.1634 44 48 44" stroke="#FFEFDF" stroke-width="2" stroke-linecap="round" stroke-linejoin="round"/>
<path d="M37.8014 56.6199C37.4415 56.6929 37.1506 56.9571 37.0435 57.3083C36.9364 57.6595 37.0303 58.0411 37.2882 58.3024L41.9164 62.9923L40.7689 68.8064C40.6949 69.1816 40.8413 69.5661 41.1461 69.7971C41.451 70.028 41.8608 70.0649 42.202 69.892L48 66.9544L53.798 69.892C54.1392 70.0649 54.549 70.028 54.8539 69.7971C55.1587 69.5661 55.3051 69.1816 55.2311 68.8064L54.0836 62.9923L58.7118 58.3024C58.9697 58.0411 59.0636 57.6595 58.9565 57.3083C58.8494 56.9571 58.5585 56.6929 58.1986 56.6199L52.3841 55.4415L48.8605 49.4905C48.6805 49.1865 48.3533 49 48 49C47.6467 49 47.3195 49.1865 47.1395 49.4905L45.2645 52.6572L43.6159 55.4415L37.8014 56.6199Z" fill="#FFD2B1" stroke="#964F2E" stroke-width="2" stroke-linecap="round" stroke-linejoin="round"/>
<circle cx="76" cy="12" r="1" fill="#1DAE69"/>
<circle cx="80" cy="12" r="1" fill="#1DAE69"/>
<circle cx="75" cy="22" r="1" fill="#1DAE69"/>
<circle cx="71" cy="28" r="1" fill="#1DAE69"/>
<circle cx="72" cy="15" r="1" fill="#1DAE69"/>
<circle cx="75.5" cy="17.5" r="1.5" fill="#1DAE69"/>
<circle cx="71.5" cy="22.5" r="1.5" fill="#1DAE69"/>
</svg>
