<svg width="200" height="200" viewBox="0 0 200 200" fill="none" xmlns="http://www.w3.org/2000/svg">
<g clip-path="url(#clip0_549_11)">
<mask id="mask0_549_11" style="mask-type:luminance" maskUnits="userSpaceOnUse" x="0" y="0" width="200" height="200">
<path d="M200 0H0V200H200V0Z" fill="white"/>
</mask>
<g mask="url(#mask0_549_11)">
<path d="M94.3977 157.203L54.6373 181.557C53.4353 182.293 52.0412 182.654 50.6331 182.593C49.225 182.533 47.8669 182.054 46.7323 181.218C45.5976 180.382 44.738 179.227 44.2631 177.9C43.7883 176.573 43.7199 175.135 44.0666 173.769L50.2201 149.542C51.2575 145.463 53.1773 141.66 55.8441 138.403C58.511 135.146 61.8599 132.514 65.6547 130.692L109.03 109.865C110.28 109.263 111.27 108.229 111.818 106.954C112.366 105.679 112.435 104.249 112.013 102.927C111.59 101.606 110.704 100.481 109.518 99.761C108.331 99.0408 106.925 98.7735 105.557 99.0081L57.2754 107.367C47.9496 108.982 38.3882 106.407 31.136 100.328L15.8821 87.5459C14.8041 86.6415 14.0196 85.4368 13.6287 84.085C13.2377 82.7333 13.258 81.2958 13.6868 79.9556C14.1157 78.6154 14.9338 77.4332 16.0369 76.5596C17.1399 75.6859 18.4781 75.1604 19.8809 75.0499L66.4833 71.4025C68.4093 71.2512 70.256 70.5704 71.8193 69.4353C73.3826 68.3003 74.6018 66.7552 75.342 64.9707L93.3193 21.571C93.856 20.2763 94.7644 19.1698 95.9298 18.3913C97.0952 17.6128 98.4653 17.1973 99.8668 17.1973C101.268 17.1973 102.638 17.6128 103.804 18.3913C104.969 19.1698 105.878 20.2763 106.414 21.571L124.392 64.9707C125.132 66.7552 126.351 68.3003 127.914 69.4353C129.478 70.5704 131.324 71.2512 133.25 71.4025L180.109 75.0703C181.506 75.1801 182.84 75.7021 183.941 76.5702C185.042 77.4383 185.861 78.6134 186.294 79.947C186.727 81.2806 186.755 82.7126 186.374 84.062C185.993 85.4114 185.221 86.6174 184.154 87.5276L148.417 117.997C146.946 119.252 145.851 120.889 145.253 122.728C144.655 124.567 144.578 126.535 145.029 128.415L156.016 174.057C156.344 175.42 156.26 176.85 155.775 178.165C155.291 179.48 154.427 180.622 153.293 181.447C152.159 182.271 150.806 182.74 149.405 182.796C148.005 182.851 146.619 182.49 145.423 181.758L105.336 157.203C103.69 156.195 101.797 155.662 99.8668 155.662C97.9367 155.662 96.0441 156.195 94.3977 157.203Z" fill="white"/>
<path d="M94.3977 157.203L54.6373 181.557C53.4353 182.293 52.0412 182.654 50.6331 182.593C49.225 182.533 47.8669 182.054 46.7323 181.218C45.5976 180.382 44.738 179.227 44.2631 177.9C43.7883 176.573 43.7199 175.135 44.0666 173.769L50.2201 149.542C51.2575 145.463 53.1773 141.66 55.8441 138.403C58.511 135.146 61.8599 132.514 65.6547 130.692L109.03 109.865C110.28 109.263 111.27 108.229 111.818 106.954C112.366 105.679 112.435 104.249 112.013 102.927C111.59 101.606 110.704 100.481 109.518 99.761C108.331 99.0408 106.925 98.7735 105.557 99.0081L57.2754 107.367C47.9496 108.982 38.3882 106.407 31.136 100.328L15.8821 87.5459C14.8041 86.6415 14.0196 85.4368 13.6287 84.085C13.2377 82.7333 13.258 81.2958 13.6868 79.9556C14.1157 78.6154 14.9338 77.4332 16.0369 76.5596C17.1399 75.6859 18.4781 75.1604 19.8809 75.0499L66.4833 71.4025C68.4093 71.2512 70.256 70.5704 71.8193 69.4353C73.3826 68.3003 74.6018 66.7552 75.342 64.9707L93.3193 21.571C93.856 20.2763 94.7644 19.1698 95.9298 18.3913C97.0952 17.6128 98.4653 17.1973 99.8668 17.1973C101.268 17.1973 102.638 17.6128 103.804 18.3913C104.969 19.1698 105.878 20.2763 106.414 21.571L124.392 64.9707C125.132 66.7552 126.351 68.3003 127.914 69.4353C129.478 70.5704 131.324 71.2512 133.25 71.4025L180.109 75.0703C181.506 75.1801 182.84 75.7021 183.941 76.5702C185.042 77.4383 185.861 78.6134 186.294 79.947C186.727 81.2806 186.755 82.7126 186.374 84.062C185.993 85.4114 185.221 86.6174 184.154 87.5276L148.417 117.997C146.946 119.252 145.851 120.889 145.253 122.728C144.655 124.567 144.578 126.535 145.029 128.415L156.016 174.057C156.344 175.42 156.26 176.85 155.775 178.165C155.291 179.48 154.427 180.622 153.293 181.447C152.159 182.271 150.806 182.74 149.405 182.796C148.005 182.851 146.619 182.49 145.423 181.758L105.336 157.203C103.69 156.195 101.797 155.662 99.8668 155.662C97.9367 155.662 96.0441 156.195 94.3977 157.203Z" fill="url(#paint0_linear_549_11)"/>
<path d="M94.3977 157.203L54.6373 181.557C53.4353 182.293 52.0412 182.654 50.6331 182.593C49.225 182.533 47.8669 182.054 46.7323 181.218C45.5976 180.382 44.738 179.227 44.2631 177.9C43.7883 176.573 43.7199 175.135 44.0666 173.769L50.2201 149.542C51.2575 145.463 53.1773 141.66 55.8441 138.403C58.511 135.146 61.8599 132.514 65.6547 130.692L109.03 109.865C110.28 109.263 111.27 108.229 111.818 106.954C112.366 105.679 112.435 104.249 112.013 102.927C111.59 101.606 110.704 100.481 109.518 99.761C108.331 99.0408 106.925 98.7735 105.557 99.0081L57.2754 107.367C47.9496 108.982 38.3882 106.407 31.136 100.328L15.8821 87.5459C14.8041 86.6415 14.0196 85.4368 13.6287 84.085C13.2377 82.7333 13.258 81.2958 13.6868 79.9556C14.1157 78.6154 14.9338 77.4332 16.0369 76.5596C17.1399 75.6859 18.4781 75.1604 19.8809 75.0499L66.4833 71.4025C68.4093 71.2512 70.256 70.5704 71.8193 69.4353C73.3826 68.3003 74.6018 66.7552 75.342 64.9707L93.3193 21.571C93.856 20.2763 94.7644 19.1698 95.9298 18.3913C97.0952 17.6128 98.4653 17.1973 99.8668 17.1973C101.268 17.1973 102.638 17.6128 103.804 18.3913C104.969 19.1698 105.878 20.2763 106.414 21.571L124.392 64.9707C125.132 66.7552 126.351 68.3003 127.914 69.4353C129.478 70.5704 131.324 71.2512 133.25 71.4025L180.109 75.0703C181.506 75.1801 182.84 75.7021 183.941 76.5702C185.042 77.4383 185.861 78.6134 186.294 79.947C186.727 81.2806 186.755 82.7126 186.374 84.062C185.993 85.4114 185.221 86.6174 184.154 87.5276L148.417 117.997C146.946 119.252 145.851 120.889 145.253 122.728C144.655 124.567 144.578 126.535 145.029 128.415L156.016 174.057C156.344 175.42 156.26 176.85 155.775 178.165C155.291 179.48 154.427 180.622 153.293 181.447C152.159 182.271 150.806 182.74 149.405 182.796C148.005 182.851 146.619 182.49 145.423 181.758L105.336 157.203C103.69 156.195 101.797 155.662 99.8668 155.662C97.9367 155.662 96.0441 156.195 94.3977 157.203Z" fill="url(#paint1_linear_549_11)"/>
<path style="mix-blend-mode:soft-light" d="M94.3977 157.203L54.6373 181.557C53.4353 182.293 52.0412 182.654 50.6331 182.593C49.225 182.533 47.8669 182.054 46.7323 181.218C45.5976 180.382 44.738 179.227 44.2631 177.9C43.7883 176.573 43.7199 175.135 44.0666 173.769L50.2201 149.542C51.2575 145.463 53.1773 141.66 55.8441 138.403C58.511 135.146 61.8599 132.514 65.6547 130.692L109.03 109.865C110.28 109.263 111.27 108.229 111.818 106.954C112.366 105.679 112.435 104.249 112.013 102.927C111.59 101.606 110.704 100.481 109.518 99.761C108.331 99.0408 106.925 98.7735 105.557 99.0081L57.2754 107.367C47.9496 108.982 38.3882 106.407 31.136 100.328L15.8821 87.5459C14.8041 86.6415 14.0196 85.4368 13.6287 84.085C13.2377 82.7333 13.258 81.2958 13.6868 79.9556C14.1157 78.6154 14.9338 77.4332 16.0369 76.5596C17.1399 75.6859 18.4781 75.1604 19.8809 75.0499L66.4833 71.4025C68.4093 71.2512 70.256 70.5704 71.8193 69.4353C73.3826 68.3003 74.6017 66.7552 75.342 64.9707L93.3193 21.571C93.8559 20.2763 94.7644 19.1698 95.9298 18.3913C97.0952 17.6128 98.4653 17.1973 99.8668 17.1973C101.268 17.1973 102.638 17.6128 103.804 18.3913C104.969 19.1698 105.878 20.2763 106.414 21.571L124.392 64.9707C125.132 66.7552 126.351 68.3003 127.914 69.4353C129.478 70.5704 131.324 71.2512 133.25 71.4025L180.109 75.0703C181.506 75.1801 182.84 75.7021 183.941 76.5702C185.042 77.4383 185.861 78.6134 186.294 79.947C186.727 81.2806 186.755 82.7126 186.374 84.062C185.993 85.4114 185.221 86.6174 184.154 87.5276L148.417 117.997C146.946 119.252 145.851 120.889 145.253 122.728C144.655 124.567 144.578 126.535 145.029 128.415L156.016 174.057C156.344 175.42 156.26 176.85 155.775 178.165C155.291 179.48 154.427 180.622 153.293 181.447C152.159 182.271 150.806 182.74 149.405 182.796C148.005 182.851 146.619 182.49 145.423 181.758L105.336 157.203C103.69 156.195 101.797 155.662 99.8668 155.662C97.9367 155.662 96.0441 156.195 94.3977 157.203Z" stroke="url(#paint2_linear_549_11)" stroke-width="1.7469"/>
</g>
</g>
<defs>
<linearGradient id="paint0_linear_549_11" x1="16.601" y1="143.027" x2="181.402" y2="11.38" gradientUnits="userSpaceOnUse">
<stop stop-color="#6B93FF"/>
<stop offset="0.439" stop-color="#976FFF"/>
<stop offset="1" stop-color="#E46ACE"/>
</linearGradient>
<linearGradient id="paint1_linear_549_11" x1="-3.70771" y1="221.216" x2="174.134" y2="4.93402" gradientUnits="userSpaceOnUse">
<stop stop-color="#FFF272"/>
<stop offset="0.715" stop-color="#FEBD04"/>
<stop offset="1" stop-color="#FF8D3F"/>
</linearGradient>
<linearGradient id="paint2_linear_549_11" x1="202.257" y1="68.2242" x2="99.9948" y2="99.9992" gradientUnits="userSpaceOnUse">
<stop stop-color="white" stop-opacity="0"/>
<stop offset="0.396" stop-color="white" stop-opacity="0.85"/>
<stop offset="0.521" stop-color="white"/>
<stop offset="0.646" stop-color="white" stop-opacity="0.85"/>
<stop offset="1" stop-color="white" stop-opacity="0"/>
</linearGradient>
<clipPath id="clip0_549_11">
<rect width="200" height="200" fill="white"/>
</clipPath>
</defs>
</svg>
